<svg width="539" height="202" viewBox="0 0 539 202" fill="none" xmlns="http://www.w3.org/2000/svg">
<rect width="539" height="202" fill="#9E2D2C"/>
<path d="M46.4737 134V75.8182H87.0419V87.2386H60.5362V99.1705H84.968V110.619H60.5362V122.58H87.0419V134H46.4737ZM109.741 75.8182V134H95.8487V75.8182H109.741ZM138.981 134.824C134.416 134.824 130.477 133.924 127.163 132.125C123.867 130.307 121.329 127.722 119.549 124.369C117.788 120.998 116.907 116.992 116.907 112.352C116.907 107.845 117.797 103.905 119.577 100.534C121.358 97.1439 123.867 94.5114 127.106 92.6364C130.344 90.7424 134.161 89.7955 138.555 89.7955C141.661 89.7955 144.502 90.2784 147.077 91.2443C149.653 92.2102 151.879 93.6402 153.754 95.5341C155.629 97.428 157.087 99.767 158.129 102.551C159.17 105.316 159.691 108.489 159.691 112.068V115.534H121.765V107.466H146.765C146.746 105.989 146.396 104.672 145.714 103.517C145.032 102.362 144.094 101.462 142.901 100.818C141.727 100.155 140.373 99.8239 138.839 99.8239C137.286 99.8239 135.894 100.174 134.663 100.875C133.432 101.557 132.456 102.494 131.737 103.688C131.017 104.862 130.638 106.197 130.6 107.693V115.903C130.6 117.684 130.951 119.246 131.651 120.591C132.352 121.917 133.346 122.949 134.634 123.688C135.922 124.426 137.456 124.795 139.237 124.795C140.468 124.795 141.585 124.625 142.589 124.284C143.593 123.943 144.454 123.441 145.174 122.778C145.894 122.116 146.433 121.301 146.793 120.335L159.549 120.705C159.019 123.564 157.854 126.055 156.055 128.176C154.274 130.278 151.935 131.917 149.038 133.091C146.14 134.246 142.788 134.824 138.981 134.824ZM187.156 134.824C182.553 134.824 178.604 133.877 175.309 131.983C172.032 130.089 169.513 127.456 167.752 124.085C165.991 120.695 165.11 116.775 165.11 112.324C165.11 107.854 165.991 103.934 167.752 100.562C169.532 97.1723 172.061 94.5303 175.337 92.6364C178.633 90.7424 182.563 89.7955 187.127 89.7955C191.161 89.7955 194.674 90.5246 197.667 91.983C200.678 93.4413 203.027 95.5057 204.712 98.1761C206.417 100.828 207.317 103.943 207.411 107.523H194.428C194.163 105.288 193.406 103.536 192.156 102.267C190.924 100.998 189.315 100.364 187.326 100.364C185.716 100.364 184.305 100.818 183.093 101.727C181.881 102.617 180.934 103.943 180.252 105.705C179.589 107.447 179.258 109.606 179.258 112.182C179.258 114.758 179.589 116.936 180.252 118.716C180.934 120.477 181.881 121.812 183.093 122.722C184.305 123.612 185.716 124.057 187.326 124.057C188.614 124.057 189.75 123.782 190.735 123.233C191.739 122.684 192.563 121.879 193.207 120.818C193.851 119.739 194.258 118.432 194.428 116.898H207.411C207.279 120.496 206.379 123.64 204.712 126.33C203.065 129.019 200.745 131.112 197.752 132.608C194.779 134.085 191.246 134.824 187.156 134.824ZM239.151 90.3636V100.591H211.623V90.3636H239.151ZM217.39 79.9091H231.282V120.278C231.282 121.131 231.415 121.822 231.68 122.352C231.964 122.864 232.371 123.233 232.901 123.46C233.432 123.669 234.066 123.773 234.805 123.773C235.335 123.773 235.894 123.725 236.481 123.631C237.087 123.517 237.541 123.422 237.844 123.347L239.947 133.375C239.284 133.564 238.346 133.801 237.134 134.085C235.941 134.369 234.511 134.549 232.844 134.625C229.587 134.777 226.793 134.398 224.464 133.489C222.153 132.561 220.382 131.121 219.151 129.17C217.939 127.22 217.352 124.767 217.39 121.812V79.9091ZM246.239 134V90.3636H259.734V98.3182H260.188C260.984 95.4394 262.281 93.2992 264.08 91.8977C265.879 90.4773 267.972 89.767 270.359 89.767C271.003 89.767 271.665 89.8144 272.347 89.9091C273.029 89.9848 273.664 90.108 274.251 90.2784V102.352C273.588 102.125 272.717 101.945 271.637 101.812C270.576 101.68 269.629 101.614 268.796 101.614C267.148 101.614 265.662 101.983 264.336 102.722C263.029 103.441 261.997 104.455 261.239 105.761C260.501 107.049 260.131 108.564 260.131 110.307V134H246.239ZM298.015 134.824C293.432 134.824 289.492 133.886 286.197 132.011C282.92 130.117 280.392 127.485 278.612 124.114C276.85 120.723 275.969 116.794 275.969 112.324C275.969 107.835 276.85 103.905 278.612 100.534C280.392 97.1439 282.92 94.5114 286.197 92.6364C289.492 90.7424 293.432 89.7955 298.015 89.7955C302.598 89.7955 306.528 90.7424 309.805 92.6364C313.1 94.5114 315.629 97.1439 317.39 100.534C319.17 103.905 320.06 107.835 320.06 112.324C320.06 116.794 319.17 120.723 317.39 124.114C315.629 127.485 313.1 130.117 309.805 132.011C306.528 133.886 302.598 134.824 298.015 134.824ZM298.1 124.341C299.767 124.341 301.178 123.83 302.333 122.807C303.488 121.784 304.369 120.364 304.975 118.545C305.6 116.727 305.913 114.625 305.913 112.239C305.913 109.814 305.6 107.693 304.975 105.875C304.369 104.057 303.488 102.636 302.333 101.614C301.178 100.591 299.767 100.08 298.1 100.08C296.377 100.08 294.918 100.591 293.725 101.614C292.551 102.636 291.651 104.057 291.026 105.875C290.42 107.693 290.117 109.814 290.117 112.239C290.117 114.625 290.42 116.727 291.026 118.545C291.651 120.364 292.551 121.784 293.725 122.807C294.918 123.83 296.377 124.341 298.1 124.341ZM379.989 96.8977H365.785C365.595 95.4394 365.207 94.1231 364.62 92.9489C364.033 91.7746 363.256 90.7708 362.29 89.9375C361.325 89.1042 360.179 88.4697 358.853 88.0341C357.546 87.5795 356.097 87.3523 354.506 87.3523C351.684 87.3523 349.251 88.0436 347.205 89.4261C345.179 90.8087 343.616 92.8068 342.518 95.4205C341.438 98.0341 340.898 101.197 340.898 104.909C340.898 108.773 341.448 112.011 342.546 114.625C343.664 117.22 345.226 119.18 347.234 120.506C349.26 121.812 351.656 122.466 354.421 122.466C355.974 122.466 357.385 122.267 358.654 121.869C359.942 121.472 361.069 120.894 362.035 120.136C363.02 119.36 363.825 118.422 364.45 117.324C365.094 116.206 365.539 114.947 365.785 113.545L379.989 113.631C379.743 116.206 378.995 118.744 377.745 121.244C376.514 123.744 374.819 126.027 372.66 128.091C370.501 130.136 367.868 131.765 364.762 132.977C361.675 134.189 358.133 134.795 354.137 134.795C348.872 134.795 344.156 133.64 339.989 131.33C335.842 129 332.565 125.61 330.16 121.159C327.754 116.708 326.552 111.292 326.552 104.909C326.552 98.5076 327.773 93.0814 330.217 88.6307C332.66 84.1799 335.965 80.7992 340.131 78.4886C344.298 76.178 348.967 75.0227 354.137 75.0227C357.66 75.0227 360.917 75.5152 363.91 76.5C366.902 77.4659 369.535 78.8864 371.808 80.7614C374.08 82.6174 375.927 84.8996 377.347 87.608C378.768 90.3163 379.648 93.4129 379.989 96.8977ZM400.337 134.739C397.553 134.739 395.082 134.275 392.923 133.347C390.782 132.4 389.087 130.979 387.837 129.085C386.606 127.172 385.991 124.777 385.991 121.898C385.991 119.473 386.417 117.428 387.269 115.761C388.121 114.095 389.296 112.741 390.792 111.699C392.288 110.657 394.012 109.871 395.962 109.341C397.913 108.792 399.996 108.422 402.212 108.233C404.693 108.006 406.692 107.769 408.207 107.523C409.722 107.258 410.82 106.888 411.502 106.415C412.203 105.922 412.553 105.231 412.553 104.341V104.199C412.553 102.741 412.051 101.614 411.048 100.818C410.044 100.023 408.69 99.625 406.985 99.625C405.148 99.625 403.671 100.023 402.553 100.818C401.436 101.614 400.726 102.712 400.423 104.114L387.61 103.659C387.989 101.008 388.964 98.6402 390.536 96.5568C392.127 94.4545 394.305 92.8068 397.07 91.6136C399.854 90.4015 403.197 89.7955 407.099 89.7955C409.883 89.7955 412.449 90.1269 414.798 90.7898C417.146 91.4337 419.192 92.3807 420.934 93.6307C422.676 94.8617 424.021 96.3769 424.968 98.1761C425.934 99.9754 426.417 102.03 426.417 104.341V134H413.349V127.92H413.008C412.231 129.398 411.237 130.648 410.025 131.67C408.832 132.693 407.421 133.46 405.792 133.972C404.182 134.483 402.364 134.739 400.337 134.739ZM404.627 125.648C406.123 125.648 407.468 125.345 408.661 124.739C409.873 124.133 410.839 123.299 411.559 122.239C412.279 121.159 412.638 119.909 412.638 118.489V114.341C412.241 114.549 411.758 114.739 411.19 114.909C410.64 115.08 410.034 115.241 409.371 115.392C408.709 115.544 408.027 115.676 407.326 115.79C406.625 115.903 405.953 116.008 405.309 116.102C404.002 116.311 402.885 116.633 401.957 117.068C401.048 117.504 400.347 118.072 399.854 118.773C399.381 119.455 399.144 120.269 399.144 121.216C399.144 122.655 399.656 123.754 400.678 124.511C401.72 125.269 403.036 125.648 404.627 125.648ZM434.911 134V90.3636H448.406V98.3182H448.86C449.656 95.4394 450.953 93.2992 452.752 91.8977C454.551 90.4773 456.644 89.767 459.031 89.767C459.674 89.767 460.337 89.8144 461.019 89.9091C461.701 89.9848 462.335 90.108 462.923 90.2784V102.352C462.26 102.125 461.388 101.945 460.309 101.812C459.248 101.68 458.301 101.614 457.468 101.614C455.82 101.614 454.334 101.983 453.008 102.722C451.701 103.441 450.669 104.455 449.911 105.761C449.173 107.049 448.803 108.564 448.803 110.307V134H434.911ZM495.245 90.3636V100.591H467.717V90.3636H495.245ZM473.484 79.9091H487.376V120.278C487.376 121.131 487.508 121.822 487.773 122.352C488.058 122.864 488.465 123.233 488.995 123.46C489.525 123.669 490.16 123.773 490.898 123.773C491.429 123.773 491.987 123.725 492.575 123.631C493.181 123.517 493.635 123.422 493.938 123.347L496.04 133.375C495.378 133.564 494.44 133.801 493.228 134.085C492.035 134.369 490.605 134.549 488.938 134.625C485.681 134.777 482.887 134.398 480.558 133.489C478.247 132.561 476.476 131.121 475.245 129.17C474.033 127.22 473.446 124.767 473.484 121.812V79.9091Z" fill="white"/>
</svg>
